<svg xmlns="http://www.w3.org/2000/svg" width="1616" height="512.016" viewBox="0 0 1616 512.016">
  <g id="Group_6" data-name="Group 6" transform="translate(-110 -283.992)">
    <g id="streben-logo" transform="translate(110.001 283.985)">
      <g id="Group_5" data-name="Group 5">
        <path id="Path_1" data-name="Path 1" d="M415.394,365.172c-13.491,4.072-29.678-1.688-41.162-13.158l-15.216-15.022c-.571-.771-27-37.343-27-80.984,0-41.678,23.886-77.309,26.556-81.07l15.661-16.661c11.484-11.455,27.627-16.187,41.177-12.158A75.009,75.009,0,0,0,490.043,21.255c-28.3-28.33-77.754-28.33-106.055,0A74.918,74.918,0,0,0,365.179,95.9c4.072,13.535-.7,29.692-12.158,41.162L338.08,152.226c-.366.278-38.178,28.781-82.064,28.781-42.935,0-80.116-27.375-80.424-27.375v.015L159.01,137.065c-11.455-11.47-16.23-27.627-12.158-41.177a74.9,74.9,0,0,0-18.809-74.634c-28.3-28.33-77.754-28.33-106.055,0A75.012,75.012,0,0,0,96.636,146.118c13.521-4.028,29.707.7,41.162,12.158L153.014,174.3c.571.771,27,38.068,27,81.709,0,41.678-23.886,76.584-26.556,80.345L137.8,352.013c-11.455,11.484-27.6,17.274-41.177,13.158a74.988,74.988,0,1,0,50.23,50.216c-4.072-13.535.7-29.692,12.158-41.162l14.941-15.161c.366-.278,38.178-28.056,82.064-28.056,42.935,0,80.116,26.649,80.424,26.649v-.015l16.582,16.582c11.455,11.47,16.23,27.627,12.158,41.177a74.989,74.989,0,1,0,50.216-50.229Z" fill="#1890ff"/>
        <path id="Path_2" data-name="Path 2" d="M336.439,357.642l16.582,16.582c11.455,11.47,16.23,27.627,12.158,41.177a74.988,74.988,0,1,0,50.216-50.23c-13.491,4.072-29.678-1.688-41.162-13.158l-15.216-15.022c-.571-.771-27-37.343-27-80.984,0-41.678,23.886-77.309,26.556-81.07l15.661-16.661c11.484-11.455,27.627-16.187,41.177-12.158A75.009,75.009,0,0,0,490.044,21.254c-28.3-28.33-77.754-28.33-106.055,0A74.918,74.918,0,0,0,365.18,95.9c4.072,13.535-.7,29.692-12.158,41.162l-14.941,15.161c-.366.278-38.178,28.781-82.064,28.781v150c42.935,0,80.116,26.649,80.424,26.649C336.439,357.657,336.439,357.657,336.439,357.642Z" fill="#0084ff"/>
        <path id="Path_3" data-name="Path 3" d="M241.017,241.009h30v30h-30Z" transform="translate(-106.04 256.013) rotate(-45)" fill="#e4eaf1"/>
        <path id="Path_4" data-name="Path 4" d="M256.015,234.8v42.422l21.211-21.211Z" fill="#fff"/>
        <g id="Group_1" data-name="Group 1">
          <path id="Path_5" data-name="Path 5" d="M422.017,59.284h30v30h-30Z" transform="translate(75.473 330.773) rotate(-45)" fill="#fff"/>
        </g>
        <g id="Group_2" data-name="Group 2">
          <path id="Path_6" data-name="Path 6" d="M422.017,422.009h30v30h-30Z" transform="translate(-181.012 437.013) rotate(-45)" fill="#fff"/>
        </g>
        <g id="Nanotechnology_1_">
          <g id="Group_3" data-name="Group 3">
            <path id="Path_7" data-name="Path 7" d="M60.017,59.284h30v30h-30Z" transform="translate(-30.554 74.801) rotate(-45)" fill="#e4eaf1"/>
          </g>
          <g id="Group_4" data-name="Group 4">
            <path id="Path_8" data-name="Path 8" d="M60.017,422.009h30v30h-30Z" transform="translate(-287.04 181.04) rotate(-45)" fill="#e4eaf1"/>
          </g>
        </g>
      </g>
    </g>
    <text id="STREBEN" transform="translate(749 499)" fill="#fff" stroke="#fff" stroke-width="1" font-size="200" font-family="Montserrat-SemiBold, Montserrat" font-weight="600"><tspan x="0" y="0">STREBEN</tspan></text>
    <text id="TECHNIK" transform="translate(746 726)" fill="#b9b9b9" font-size="200" font-family="Montserrat-Regular, Montserrat" letter-spacing="0.05em"><tspan x="0" y="0">TECHN</tspan><tspan y="0" fill="#0084ff">I</tspan><tspan y="0">K</tspan></text>
  </g>
</svg>
